<?xml version="1.0" encoding="utf-8"?>
<!-- Generator: Adobe Illustrator 21.1.0, SVG Export Plug-In . SVG Version: 6.00 Build 0)  -->
<svg version="1.1" id="Calque_1" xmlns="http://www.w3.org/2000/svg" xmlns:xlink="http://www.w3.org/1999/xlink" x="0px" y="0px"
	 viewBox="0 0 60 40" style="enable-background:new 0 0 60 40;" xml:space="preserve">
<style type="text/css">
	.st0{fill-rule:evenodd;clip-rule:evenodd;fill:#D8D8D8;}
</style>
<path class="st0" d="M32,6.6c-0.2,0-0.3,0.7-0.7,1c-0.2,0.2-0.5,0.2-0.7,0.5c-0.1,0.1,0,0.3-0.1,0.5c-0.1,0.4-0.6,0.4-0.6,0.8
	c0,0.4,0.4,0.5,0.7,0.8c0.3,0.2,0.3,0.4,0.6,0.5c0.3,0.1,0.7-0.2,1.1-0.1c0.3,0.1,0.6,0.2,0.7,0.5c0.1,0.3,0,0.7-0.4,0.7
	c-0.1,0-0.7-0.2-1.3-0.1c-0.8,0.1-1.7,0.4-1.8,1.2c0,0.5,0.6,1.1,1.2,1c0.4-0.1,0.2-0.6,0.4-0.8c0.3-0.3,2,1.1,3.5,1.1
	c0.7,0,1.1-0.2,1.6-0.7c0,0,0.1-0.1,0.2-0.1c0.1,0,0.2,0.1,0.2,0.1c1.2,1,2.2,3,6.8,3c0.6,0,1.4,0.3,2,0.9c0.5,0.5,0.8,1.3,1.2,2
	c0.5,1.2,1.3,2.3,2.5,3.6c0.1,0.1,1.1,0.9,1.2,0.9c0,0,0.1,0.2,0.1,0.3c0,0.8-0.1,3,1.5,3.1c0.4,0,0.3-0.3,0.3-0.5
	c0-0.4-0.1-0.8,0.1-1.2c0.3-0.5-0.6-0.8-0.6-2c0-0.9-0.7-0.7-1.1-1.4c-0.2-0.4-0.4-0.6-0.4-1.1c0.1-2.7-0.6-4.4-0.9-4.8
	C49,16,48.8,15.9,49,15.7c1.4-0.9,1.7-1.8,1.7-1.8c0.7-1.7,1.4-3.3,2.3-4c0.2-0.1,0.7-0.5,0.9-0.6c0.8-0.4,1.3-0.6,1.5-0.9
	c0.4-0.4,0.7-1.2,0.3-1.6c-0.5-0.6-1.3-0.1-1.6,0.1c-2.5,1.5-2.9,4.2-3.8,5.7c-0.7,1.2-1.8,2.1-2.9,2.2c-0.8,0.1-1.6-0.1-2.4-0.5
	c-2-0.9-3.1-2-3.3-2.2c-0.5-0.4-4.7-4.5-8-4.7c0,0-0.4-0.8-0.5-0.8c-0.2,0-0.5,0.5-0.7,0.6C32.4,7.2,32.1,6.6,32,6.6L32,6.6z"/>
<path class="st0" d="M17.2,30.9c-0.3,0-0.6-0.3-0.6-0.6l0-10.5h-3.5v11.6c0,0.6,0.5,1,1,1h6c0.6,0,1-0.5,1-1V19.8h-3.5l0,10.5
	C17.8,30.6,17.5,30.9,17.2,30.9L17.2,30.9z"/>
<path class="st0" d="M28.7,19.8h-5.2c-0.6,0-1.1,0.5-1.1,1.1v11.5h3.5V21.9c0-0.3,0.3-0.6,0.6-0.6c0.3,0,0.6,0.2,0.6,0.6v10.5h3.4
	V21.9c0-0.3,0.3-0.6,0.6-0.6c0.3,0,0.6,0.3,0.6,0.6v10.5h3.5V21c0-0.6-0.5-1.1-1.1-1.1H28.7L28.7,19.8z"/>
<path class="st0" d="M10.8,29.3H7.3v3.2H3.9V19.8h7c0.6,0,1.1,0.5,1.1,1.1v7.2C12,28.8,11.4,29.3,10.8,29.3L10.8,29.3z M8.5,21.9
	c0-0.4-0.3-0.6-0.6-0.6H7.3v6.4h0.6c0.3,0,0.6-0.2,0.6-0.6V21.9L8.5,21.9z"/>
<path class="st0" d="M48.5,30.9c0,0.9-0.7,1.6-1.5,1.6c-0.9,0-1.5-0.7-1.5-1.6c0-0.8,0.7-1.5,1.5-1.5C47.8,29.4,48.5,30.1,48.5,30.9
	L48.5,30.9z M47,29.6c-0.7,0-1.3,0.6-1.3,1.3c0,0.7,0.6,1.3,1.3,1.3c0.7,0,1.3-0.6,1.3-1.3C48.3,30.2,47.7,29.6,47,29.6L47,29.6
	L47,29.6z"/>
<path class="st0" d="M47.7,31.8h-0.4l-0.5-0.7v0.7h-0.3V30h0.4c0.5,0,0.7,0.2,0.7,0.5c0,0.2-0.2,0.4-0.4,0.5l0,0L47.7,31.8
	L47.7,31.8z M46.8,30.8c0.2,0,0.4-0.1,0.4-0.3c0-0.2-0.1-0.2-0.4-0.2h-0.1L46.8,30.8L46.8,30.8L46.8,30.8z"/>
<path class="st0" d="M40.9,32.4v-3.2h-1.2v3.2h-3.5V21c0-0.6,0.5-1.1,1.1-1.1h5.8c0.6,0,1.1,0.5,1.1,1.1v11.5H40.9L40.9,32.4z
	 M40.9,27.7v-5.8c0-0.3-0.3-0.6-0.6-0.6c-0.3,0-0.6,0.3-0.6,0.6v5.8H40.9L40.9,27.7z"/>
</svg>
